# xmcd CD database file
#
# Track frame offsets:
#	150
#	18390
#	41177
#	66597
#	90177
#	115737
#	146627
#	163947
#	178567
#	195681
#	223201
#	238995
#
# Disc length: 3535 seconds
#
# Revision: 1
# Processed by: cddbd v1.5.2PL0 Copyright (c) Steve Scherf et al.
# Submitted via: CDex 1.75
#
DISCID=b40dcd0c
DTITLE=Dave Grusin - The Gershwin Connection
DYEAR=1991
DGENRE=Jazz
TTITLE0=Soon
TTITLE1=Fascinating Rhythm
TTITLE2=Prelude II
TTITLE3=How Long Has This Been Going On?
TTITLE4=There's a Boat Dat's Leavin' Soon for New York
TTITLE5=My Man's Gone Now
TTITLE6=Maybe
TTITLE7=Our Love is Here to Stay
TTITLE8=S'Wonderful
TTITLE9=I've Got Plenty O' Nuthin'
TTITLE10=Nice Work if You Can Get It
TTITLE11=Medley - Bess, You Is My Woman Now, I Loves You Porgy
EXTD=YEAR: 1991
EXTT0=
EXTT1=
EXTT2=
EXTT3=
EXTT4=
EXTT5=
EXTT6=
EXTT7=
EXTT8=
EXTT9=
EXTT10=
EXTT11=
PLAYORDER=
